<?xml version="1.0" standalone="no"?>
<!DOCTYPE svg PUBLIC "-//W3C//DTD SVG 20010904//EN"
 "http://www.w3.org/TR/2001/REC-SVG-20010904/DTD/svg10.dtd">
<svg version="1.0" xmlns="http://www.w3.org/2000/svg"
 width="1024.000000pt" height="1024.000000pt" viewBox="0 0 1024.000000 1024.000000"
 preserveAspectRatio="xMidYMid meet">

<g transform="translate(0.000000,1024.000000) scale(0.100000,-0.100000)"
fill="#000000" stroke="none">
<path d="M8586 7963 c-10 -47 -60 -133 -73 -128 -8 2 -13 -4 -13 -15 0 -11 -4
-20 -9 -20 -5 0 -13 -9 -16 -21 -10 -31 -94 -148 -115 -159 -10 -5 -49 -56
-88 -113 -72 -105 -102 -140 -102 -118 0 7 -5 9 -11 6 -6 -4 -8 -13 -5 -21 3
-8 0 -11 -9 -8 -8 3 -19 -4 -26 -18 -26 -48 -224 -273 -356 -404 -29 -28 -53
-57 -53 -64 0 -9 -4 -9 -17 1 -12 10 -15 10 -9 1 5 -8 -14 -32 -54 -70 -34
-31 -65 -57 -69 -57 -4 0 -29 -22 -55 -49 -34 -34 -51 -45 -56 -36 -6 9 -10 6
-15 -9 -15 -49 -85 -106 -85 -69 0 6 -3 8 -6 5 -4 -4 -1 -14 7 -23 13 -16 12
-16 -7 -6 -12 6 -25 8 -29 4 -3 -4 -5 -2 -3 3 1 6 -1 11 -6 12 -5 0 -13 8 -18
17 -5 9 -19 21 -31 26 -19 10 -20 9 -6 -2 14 -11 17 -39 10 -95 0 -6 -9 -14
-20 -18 -11 -3 -21 -19 -25 -36 -3 -17 -10 -28 -15 -25 -5 4 -27 -10 -48 -30
-35 -33 -41 -36 -82 -30 -38 5 -42 4 -31 -9 11 -13 10 -14 -6 -9 -33 12 -37
16 -23 26 10 7 8 7 -8 3 -12 -3 -50 3 -84 15 -81 26 -237 29 -294 6 -68 -29
-102 -62 -124 -121 -29 -76 -26 -78 12 -15 44 76 102 105 207 104 62 0 85 -5
135 -29 33 -16 65 -29 70 -28 16 0 10 -92 -7 -119 -33 -49 -67 -78 -84 -71
-13 5 -15 3 -8 -8 15 -24 13 -38 -4 -32 -10 4 -13 2 -8 -5 4 -7 2 -12 -3 -12
-6 0 -11 -6 -11 -13 0 -7 -11 -29 -25 -48 -13 -20 -21 -40 -17 -44 4 -3 3 -5
-3 -4 -15 4 -95 -76 -95 -95 0 -9 -7 -28 -17 -42 -44 -68 -2 -440 59 -521 5
-6 8 -20 6 -30 -1 -10 7 -32 20 -47 25 -32 30 -22 6 12 -8 12 -12 22 -7 22 4
0 8 40 8 88 0 79 4 95 34 156 52 106 232 265 321 282 20 4 36 16 42 30 11 24
28 32 28 14 0 -5 8 -10 18 -10 10 0 23 -5 29 -11 14 -14 101 64 147 132 31 47
98 104 156 134 29 15 31 20 26 51 -7 33 -3 38 189 231 108 109 208 213 223
231 15 19 43 52 63 75 35 42 89 111 162 206 20 27 37 53 37 59 0 5 21 39 48
75 209 291 352 645 352 869 0 95 -11 127 -24 71z m-1358 -2112 c-8 -12 -18
-18 -21 -14 -4 3 0 15 10 25 21 24 29 15 11 -11z m-538 -110 c0 -20 -32 -37
-50 -26 -14 9 -13 32 3 38 28 12 47 7 47 -12z"/>
<path d="M7943 7828 c-70 -8 -87 -14 -77 -30 5 -7 1 -9 -9 -5 -9 3 -19 2 -22
-3 -4 -6 0 -10 7 -10 9 0 9 -3 -2 -10 -23 -14 -19 -113 5 -140 28 -31 116 -53
178 -45 103 14 162 54 151 103 -10 39 -39 94 -61 114 -27 25 -96 35 -170 26z"/>
<path d="M7390 6825 c-13 -14 -22 -27 -19 -29 2 -2 14 10 27 25 29 36 24 38
-8 4z"/>
<path d="M7383 6748 c-15 -20 -25 -38 -20 -38 3 0 12 11 21 25 17 26 16 35 -1
13z"/>
<path d="M7313 6663 c-17 -18 -27 -36 -21 -39 5 -3 10 -4 12 -3 25 35 47 71
45 72 -2 1 -18 -12 -36 -30z"/>
<path d="M6567 5904 c3 -9 0 -20 -8 -24 -7 -5 -11 -11 -9 -14 3 -2 13 1 23 9
17 12 14 45 -4 45 -4 0 -6 -7 -2 -16z"/>
<path d="M5300 5643 c8 -3 38 -17 67 -29 28 -13 84 -36 125 -50 168 -61 516
-225 605 -285 23 -16 44 -29 48 -29 3 0 31 -16 61 -35 30 -19 58 -35 63 -35 5
0 30 -17 57 -38 27 -21 83 -59 124 -85 89 -56 102 -65 196 -139 39 -32 77 -58
83 -58 6 0 11 -5 11 -11 0 -8 5 -8 15 1 12 10 18 10 30 0 9 -7 12 -16 7 -19
-5 -3 -13 -13 -18 -23 -5 -9 -43 -51 -84 -95 -41 -43 -70 -72 -65 -64 5 10 4
12 -3 7 -7 -4 -12 -12 -12 -17 0 -6 -24 -35 -52 -66 l-53 -54 -21 25 c-12 13
-25 22 -30 18 -4 -4 -4 -1 0 6 5 7 10 11 13 8 9 -9 67 25 91 53 12 14 37 44
54 66 24 31 26 35 7 19 -37 -32 -50 -38 -42 -18 4 10 0 20 -11 26 -9 5 -13 14
-10 20 4 6 3 8 -4 5 -5 -4 -8 -16 -5 -27 4 -15 -6 -27 -46 -51 -36 -23 -48
-35 -39 -41 7 -4 9 -8 5 -8 -5 0 -36 20 -70 45 -164 119 -412 287 -502 339
-55 33 -122 72 -150 89 -75 46 -161 91 -150 80 10 -10 176 -110 307 -183 34
-19 87 -53 117 -76 31 -22 110 -78 176 -124 201 -140 257 -183 245 -190 -7 -4
-11 -11 -11 -16 1 -5 -5 -9 -11 -9 -8 0 -12 -10 -10 -25 4 -23 2 -23 -40 13
-126 108 -468 349 -603 425 -164 93 -361 198 -444 237 -110 52 -85 24 29 -32
79 -39 160 -90 172 -109 8 -12 56 -29 72 -25 5 1 6 -5 3 -13 -4 -9 -1 -18 5
-22 7 -4 8 -3 4 4 -4 7 -4 12 1 12 13 -1 43 -27 37 -32 -3 -4 3 -5 13 -4 10 0
17 -5 15 -12 -1 -8 3 -12 10 -10 12 5 87 -28 98 -43 3 -3 21 -14 40 -24 19
-10 30 -20 23 -22 -19 -7 -135 56 -127 69 4 7 3 8 -5 4 -15 -10 -163 72 -155
86 4 6 2 8 -3 5 -6 -4 -85 31 -175 78 -90 46 -193 93 -229 105 -36 11 -96 33
-132 50 -49 22 -82 30 -122 30 -32 0 -54 -4 -50 -9 3 -5 -4 -13 -16 -16 -11
-4 -19 -9 -16 -11 2 -2 18 1 36 7 36 13 95 2 167 -32 24 -10 48 -19 53 -19 6
0 11 -4 11 -9 0 -5 24 -19 53 -30 29 -11 51 -25 49 -32 -2 -9 2 -8 14 2 12 9
15 9 10 2 -5 -10 3 -13 28 -13 24 0 69 -18 140 -57 94 -52 104 -59 88 -71 -14
-11 -11 -12 25 -6 36 5 45 3 66 -19 14 -13 40 -30 58 -36 42 -14 69 -39 63
-56 -4 -9 1 -12 14 -8 22 5 146 -53 200 -94 39 -29 36 -36 -39 -83 -27 -18
-47 -36 -44 -40 6 -9 -30 -25 -66 -29 -5 0 -7 -6 -3 -13 5 -7 3 -8 -6 -3 -8 5
-18 1 -27 -10 -7 -11 -13 -15 -13 -11 0 4 -15 -1 -33 -12 -17 -12 -75 -36
-128 -55 -53 -20 -110 -42 -125 -50 -16 -8 -63 -22 -104 -31 -41 -10 -95 -24
-120 -32 -25 -9 -52 -17 -60 -19 -8 -2 -28 -6 -43 -10 -26 -7 -28 -6 -22 18 6
23 3 26 -45 36 -28 6 -70 11 -93 11 -79 0 -301 43 -321 61 -9 8 48 12 169 11
l40 -1 -49 10 c-26 5 -55 16 -62 24 -8 8 -21 12 -29 8 -9 -3 -21 -1 -28 5 -20
17 -120 54 -164 62 -40 6 -43 5 -43 -15 0 -33 -23 -49 -49 -35 -33 17 -22 65
19 83 9 4 6 5 -7 3 -13 -2 -23 -1 -23 3 0 7 -122 71 -136 71 -4 0 -45 28 -93
62 -47 34 -91 61 -98 61 -7 0 -10 3 -8 7 2 4 -27 33 -65 65 -39 33 -70 63 -70
68 0 5 -7 3 -16 -4 -15 -12 -16 -11 -10 11 5 17 4 21 -2 11 -5 -7 -15 -10 -22
-6 -8 5 -7 0 2 -14 7 -12 20 -21 30 -21 9 0 20 -4 23 -10 3 -5 -2 -10 -11 -10
-16 0 -16 -1 1 -20 9 -10 15 -26 11 -35 -3 -9 -2 -14 3 -11 5 3 17 -2 28 -12
10 -9 13 -13 6 -8 -25 16 -25 -2 0 -41 24 -38 26 -42 35 -75 2 -10 9 -18 14
-18 5 0 8 -6 6 -12 -3 -7 5 -18 16 -23 12 -7 20 -19 18 -29 -3 -13 1 -17 12
-13 11 4 13 1 9 -10 -5 -12 -2 -15 10 -10 11 4 17 1 17 -9 0 -16 62 -76 175
-170 39 -32 72 -61 75 -65 3 -4 16 11 29 32 29 45 51 56 68 34 10 -14 6 -25
-23 -65 -19 -27 -39 -50 -43 -52 -10 -4 -19 -68 -22 -158 -3 -73 -10 -104 -44
-171 -17 -34 -20 -50 -12 -58 8 -8 6 -11 -8 -11 -17 0 -18 -2 -5 -10 8 -5 30
-10 49 -10 33 0 34 0 28 -39 -3 -24 0 -47 7 -56 11 -15 13 -15 29 3 10 11 19
29 20 41 2 29 15 26 29 -6 11 -28 14 -205 4 -222 -6 -9 -22 -106 -37 -226 -5
-38 -13 -207 -18 -375 -9 -293 -20 -397 -52 -480 -13 -36 -19 -72 -13 -82 9
-13 60 29 73 60 8 19 13 126 15 323 4 333 14 447 51 569 15 47 27 93 28 103 1
9 5 17 10 17 5 0 6 7 3 16 -4 10 -2 13 6 8 8 -5 9 -2 5 10 -4 10 -3 15 3 11 6
-3 13 2 17 12 7 19 43 51 79 69 17 9 26 8 45 -7 13 -10 29 -19 35 -19 13 0 20
-116 15 -277 -2 -73 1 -113 7 -113 22 0 27 30 32 191 5 163 6 166 35 214 43
70 79 88 173 87 110 -1 136 -13 195 -93 44 -58 56 -102 83 -294 3 -22 6 -101
7 -175 2 -122 7 -149 28 -150 4 0 13 15 22 33 11 25 13 45 5 92 -5 33 -11 119
-14 190 -5 104 -3 144 10 195 26 99 44 124 93 128 36 3 44 -1 64 -27 12 -17
27 -27 32 -24 6 3 7 1 3 -6 -9 -14 21 -64 33 -56 5 3 8 -9 7 -25 -1 -17 1 -30
4 -30 4 0 12 -15 18 -32 5 -18 10 -25 11 -15 1 24 17 21 25 -5 4 -13 8 -84 11
-158 3 -74 8 -223 12 -330 8 -225 6 -321 -7 -356 -7 -17 -6 -24 3 -24 8 0 8
-3 -2 -9 -9 -6 -10 -11 -2 -15 6 -4 25 6 41 23 33 33 37 59 20 152 -5 30 -14
143 -20 251 -17 332 14 559 84 617 17 14 96 22 96 10 0 -16 49 -10 58 7 5 9
13 15 18 13 5 -1 39 41 75 95 36 53 108 139 159 191 l94 94 111 -2 c106 -2
111 -1 135 24 31 32 35 52 34 164 -1 89 -1 90 13 50 8 -22 15 -73 16 -112 1
-40 2 -73 3 -73 0 0 23 30 50 67 27 37 97 121 157 186 59 65 107 123 107 129
0 6 21 36 46 67 26 31 56 75 66 99 17 38 18 50 8 90 -12 49 -79 186 -80 164 0
-7 -5 -10 -12 -6 -7 4 -8 3 -4 -4 4 -7 -2 -16 -17 -21 -14 -6 -27 -15 -29 -22
-4 -13 -34 -1 -60 24 -44 43 -395 275 -558 369 -204 118 -470 247 -650 315
-82 31 -244 83 -256 82 -5 0 -2 -3 6 -6z m657 -887 c-4 -10 -1 -13 7 -10 8 3
47 -17 87 -45 117 -80 126 -88 112 -102 -10 -10 -7 -15 17 -25 50 -22 37 -48
-45 -91 -22 -11 -75 -39 -117 -62 l-77 -41 -15 22 -16 22 -33 -19 c-56 -33
-95 -71 -118 -114 -12 -23 -27 -45 -34 -49 -6 -4 -14 -13 -17 -21 -7 -23 -48
24 -48 55 l0 25 -47 -25 c-76 -41 -173 -87 -173 -82 0 2 39 25 88 51 48 26
107 62 132 79 25 17 47 32 49 33 2 2 1 6 -2 9 -4 4 -19 2 -34 -5 -15 -6 -37
-13 -48 -15 -29 -6 -204 -84 -244 -108 -37 -24 -121 -131 -121 -157 0 -21 -59
-93 -71 -86 -5 4 -6 -2 -3 -12 4 -12 -3 -9 -20 10 -39 42 -35 84 14 140 22 25
40 47 40 49 0 1 -45 1 -100 0 -151 -6 -134 11 54 54 74 17 143 55 131 73 -9
16 25 47 86 78 35 17 109 54 164 81 109 54 198 111 260 167 l40 37 -53 -37
-52 -37 2 30 c1 17 6 28 11 25 12 -7 59 26 52 37 -4 6 -2 10 3 10 5 0 27 12
48 26 21 15 44 27 51 28 7 1 16 5 19 9 13 12 26 7 21 -7z m78 -14 c-3 -3 -11
0 -18 7 -9 10 -8 11 6 5 10 -3 15 -9 12 -12z m251 -244 c-8 -43 -27 -73 -62
-97 -18 -13 -34 -27 -34 -32 0 -5 -6 -9 -14 -9 -8 0 -17 -7 -20 -16 -3 -8 -11
-12 -16 -9 -6 4 -18 1 -27 -6 -8 -7 -25 -18 -37 -24 -11 -7 -20 -17 -18 -25 2
-8 -3 -10 -13 -7 -8 4 -15 3 -15 -2 0 -5 -9 -11 -20 -14 -11 -3 -20 -1 -20 4
0 10 281 258 293 259 4 0 6 -10 3 -22z m-1971 -29 c11 -16 1 -19 -13 -3 -7 8
-8 14 -3 14 5 0 13 -5 16 -11z m1190 -830 c11 -17 -1 -21 -15 -4 -8 9 -8 15
-2 15 6 0 14 -5 17 -11z"/>
<path d="M5725 4380 c-3 -5 -1 -10 4 -10 6 0 11 5 11 10 0 6 -2 10 -4 10 -3 0
-8 -4 -11 -10z"/>
<path d="M5410 4355 c-14 -8 -32 -14 -41 -15 -8 0 -24 -7 -35 -15 -14 -11 -6
-10 32 4 54 19 95 40 79 40 -5 0 -21 -6 -35 -14z"/>
<path d="M5221 5609 c-30 -16 -50 -30 -45 -30 32 -4 41 -3 53 6 12 9 12 7 0
-12 -14 -23 -39 -30 -53 -15 -4 4 -18 7 -31 7 -19 1 -22 -2 -13 -12 6 -7 31
-13 57 -13 42 0 48 4 69 36 37 56 26 66 -37 33z"/>
<path d="M5800 5543 c323 -148 665 -337 639 -354 -11 -7 -11 -9 2 -9 16 0 143
-73 168 -96 12 -11 10 -12 -10 -7 -21 6 -22 5 -11 -10 9 -10 25 -15 43 -13 22
3 35 -3 48 -20 10 -13 22 -24 26 -24 3 0 35 -21 71 -46 35 -25 64 -42 64 -37
-1 8 -109 92 -163 126 -15 9 -25 22 -22 27 3 5 0 7 -8 4 -8 -3 -43 17 -80 45
-142 109 -449 284 -660 375 -70 31 -131 56 -135 55 -4 0 9 -7 28 -16z"/>
<path d="M3774 5452 c-13 -8 -13 -66 -1 -78 4 -4 7 -23 7 -41 0 -40 19 -124
31 -137 5 -6 9 -17 9 -26 0 -25 177 -206 197 -202 10 2 15 0 10 -4 -8 -8 31
-54 47 -54 5 0 20 -9 32 -21 14 -13 24 -17 29 -10 3 6 3 11 -2 11 -19 0 -105
89 -98 100 6 9 10 8 17 -3 5 -10 15 -14 25 -10 9 4 14 2 11 -3 -4 -5 16 -20
43 -33 27 -14 49 -29 49 -33 0 -4 7 -8 15 -8 7 0 18 -7 23 -16 6 -10 14 -14
22 -9 9 6 9 10 -1 17 -10 6 -7 7 10 3 16 -5 21 -4 17 4 -5 7 -1 9 9 5 10 -4
12 -10 7 -18 -6 -7 5 -18 34 -33 34 -17 42 -18 37 -6 -5 13 -3 13 15 2 13 -8
17 -16 11 -20 -7 -4 -4 -9 6 -12 10 -4 14 -3 9 4 -4 8 1 9 17 4 13 -4 -3 10
-36 30 -33 21 -72 46 -88 57 -15 10 -33 16 -40 12 -6 -4 -9 -4 -5 0 4 5 -21
32 -55 62 -44 38 -68 52 -82 48 -16 -4 -17 -3 -5 5 12 8 12 13 -5 31 -10 11
-25 18 -32 15 -8 -3 -11 0 -8 6 9 13 -15 41 -30 36 -6 -3 -12 4 -12 14 -2 19
-53 93 -80 116 -8 6 -15 15 -16 20 -1 4 -6 7 -10 5 -5 -1 -6 2 -2 8 9 14 -14
42 -28 33 -6 -4 -8 0 -4 9 8 22 -3 30 -20 16 -12 -9 -13 -6 -9 16 3 14 1 24
-3 22 -4 -3 -23 8 -42 24 -19 17 -26 27 -16 24 9 -3 17 -10 17 -15 0 -5 6 -9
13 -9 6 1 2 9 -10 19 -12 10 -19 21 -16 25 9 8 1 7 -13 -2z m184 -414 c10 -10
15 -10 22 2 12 20 45 1 45 -26 0 -30 -30 -28 -66 5 -18 17 -29 31 -23 31 5 0
16 -6 22 -12z"/>
<path d="M5057 5440 c-14 -17 -15 -21 -3 -26 19 -7 56 13 56 31 0 22 -33 18
-53 -5z"/>
<path d="M5045 5330 c27 -12 43 -12 25 0 -8 5 -22 9 -30 9 -10 0 -8 -3 5 -9z"/>
<path d="M5783 5333 c-12 -2 -36 -17 -53 -33 -23 -22 -30 -37 -30 -67 0 -48
19 -76 73 -107 83 -48 183 -42 239 14 32 33 39 89 12 111 -15 12 -16 11 -11
-6 10 -30 -28 -84 -70 -102 -25 -10 -58 -14 -100 -11 -57 4 -67 8 -100 41
l-37 37 20 27 c35 47 82 68 151 68 48 0 68 -5 92 -23 36 -26 42 -15 9 16 -41
38 -113 51 -195 35z"/>
<path d="M5100 5310 c8 -5 20 -10 25 -10 6 0 3 5 -5 10 -8 5 -19 10 -25 10 -5
0 -3 -5 5 -10z"/>
<path d="M4785 5280 c-3 -5 -1 -10 4 -10 6 0 11 5 11 10 0 6 -2 10 -4 10 -3 0
-8 -4 -11 -10z"/>
<path d="M4074 5251 c0 -11 4 -17 8 -15 4 3 8 0 8 -5 0 -6 4 -11 10 -11 6 0 5
10 -2 25 -13 30 -24 32 -24 6z"/>
<path d="M5430 5256 c0 -2 7 -7 16 -10 8 -3 12 -2 9 4 -6 10 -25 14 -25 6z"/>
<path d="M5140 5150 c-9 -6 -10 -10 -3 -10 6 0 15 5 18 10 8 12 4 12 -15 0z"/>
<path d="M3840 5091 c0 -6 4 -13 10 -16 6 -3 7 1 4 9 -7 18 -14 21 -14 7z"/>
<path d="M6235 4971 c-3 -5 -1 -12 5 -16 5 -3 10 1 10 9 0 18 -6 21 -15 7z"/>
<path d="M6260 4970 c0 -5 5 -10 11 -10 5 0 7 5 4 10 -3 6 -8 10 -11 10 -2 0
-4 -4 -4 -10z"/>
<path d="M3759 4893 c6 -12 16 -25 21 -28 6 -4 8 -11 4 -16 -3 -5 22 -37 56
-70 37 -36 59 -66 56 -74 -3 -8 -1 -17 4 -20 6 -4 10 -13 10 -22 0 -13 -3 -13
-17 -2 -17 13 -17 13 0 -7 9 -11 14 -24 10 -29 -5 -4 -2 -5 5 -1 7 4 10 11 8
15 -3 4 -1 13 4 21 5 9 5 20 -2 30 -6 8 12 -9 41 -38 28 -29 51 -57 51 -63 0
-6 5 -7 12 -3 6 4 8 3 4 -4 -3 -6 2 -13 11 -17 24 -8 73 -52 73 -65 0 -6 4 -9
9 -6 5 3 22 -11 37 -32 l29 -37 -45 35 c-25 19 -82 70 -127 114 -81 76 -112
91 -54 24 15 -18 26 -40 24 -48 -4 -13 -3 -13 6 0 10 13 15 8 12 -13 0 -4 3
-6 7 -5 4 2 34 -20 66 -48 44 -40 53 -53 41 -58 -9 -3 -14 -2 -11 3 3 5 -2 15
-11 22 -12 10 -14 10 -9 2 4 -7 3 -13 -3 -13 -16 0 -22 18 -9 23 9 4 10 6 1 6
-30 2 -20 -20 22 -49 44 -31 81 -81 67 -94 -3 -4 2 -4 12 0 13 5 17 4 12 -4
-5 -8 -2 -10 10 -5 14 5 11 10 -15 35 -40 38 -40 47 0 14 17 -15 44 -33 60
-42 28 -14 40 -44 19 -44 -5 0 -10 6 -10 14 0 15 -29 30 -39 20 -3 -3 2 -11
12 -18 9 -7 17 -17 17 -21 0 -4 -7 -2 -15 5 -9 7 -18 10 -21 7 -3 -3 4 -10 15
-17 12 -6 21 -7 21 -3 0 4 6 -2 14 -12 12 -17 14 -14 26 34 9 41 10 55 0 66
-10 12 -9 15 4 15 44 0 -10 72 -102 137 -70 49 -292 240 -292 252 -1 3 -33 40
-72 81 -39 41 -66 65 -59 53z m467 -475 c29 -31 29 -31 2 -12 -15 10 -29 25
-32 32 -8 18 -2 15 30 -20z m-5 -45 c13 -16 12 -17 -3 -4 -17 13 -22 21 -14
21 2 0 10 -8 17 -17z"/>
<path d="M4160 4856 c0 -2 7 -7 16 -10 8 -3 12 -2 9 4 -6 10 -25 14 -25 6z"/>
<path d="M6669 4763 l-24 -28 28 24 c15 14 27 26 27 28 0 8 -8 1 -31 -24z"/>
<path d="M3749 4733 c6 -12 16 -25 21 -28 6 -4 8 -10 5 -15 -6 -9 25 -70 55
-108 10 -12 21 -19 24 -14 3 5 -6 20 -19 32 -26 25 -34 46 -12 35 6 -4 -1 5
-16 19 -16 14 -26 29 -24 34 3 4 -6 21 -20 37 -16 20 -21 23 -14 8z"/>
<path d="M6426 4714 c-5 -14 -9 -14 -24 -3 -15 13 -16 12 -3 -4 13 -16 16 -16
30 -3 8 9 12 18 9 21 -3 3 -8 -2 -12 -11z"/>
<path d="M3840 4636 c0 -2 8 -10 18 -17 15 -13 16 -12 3 4 -13 16 -21 21 -21
13z"/>
<path d="M6327 4626 c-3 -8 2 -20 11 -27 14 -11 15 -11 5 0 -6 7 -9 20 -6 27
3 8 3 14 0 14 -3 0 -7 -6 -10 -14z"/>
<path d="M6377 4590 c-3 -11 -1 -20 4 -20 5 0 9 6 9 14 0 8 8 17 18 19 13 4
13 5 -4 6 -14 1 -24 -6 -27 -19z"/>
<path d="M3899 4557 c13 -15 25 -37 26 -49 1 -13 6 -23 12 -23 6 0 30 -21 53
-47 42 -48 45 -63 5 -30 -11 9 -9 5 6 -10 15 -14 25 -29 22 -31 -3 -3 3 -4 14
-2 19 3 56 -23 48 -34 -2 -4 12 -26 30 -50 19 -24 33 -46 31 -50 -2 -3 5 -15
16 -26 19 -20 19 -20 12 0 -7 19 -5 18 18 -2 26 -24 38 -29 38 -14 0 4 -17 20
-37 34 -21 15 -44 36 -52 49 -7 12 11 0 42 -26 31 -26 61 -45 67 -41 17 10 12
21 -17 36 -16 8 -30 16 -33 19 -3 3 -20 16 -38 29 -18 12 -30 26 -27 31 3 5
-3 7 -14 5 -15 -3 -19 1 -16 16 4 19 -8 32 -34 36 -17 2 -78 67 -132 140 -21
28 -44 55 -51 59 -7 4 -2 -5 11 -19z"/>
<path d="M4050 4546 c0 -2 8 -10 18 -17 15 -13 16 -12 3 4 -13 16 -21 21 -21
13z"/>
<path d="M4011 4506 c-8 -9 -8 -16 -2 -20 5 -4 13 -1 17 6 5 8 9 6 14 -7 4
-11 9 -14 13 -8 4 6 -2 18 -12 27 -16 14 -20 15 -30 2z"/>
<path d="M3900 4480 c0 -5 5 -10 11 -10 5 0 7 5 4 10 -3 6 -8 10 -11 10 -2 0
-4 -4 -4 -10z"/>
<path d="M5070 4450 c0 -5 5 -10 11 -10 5 0 7 5 4 10 -3 6 -8 10 -11 10 -2 0
-4 -4 -4 -10z"/>
<path d="M4050 4352 c0 -12 19 -26 26 -19 2 2 -2 10 -11 17 -9 8 -15 8 -15 2z"/>
<path d="M4013 4296 c0 -15 22 -15 34 0 4 5 4 6 -1 2 -5 -4 -14 -3 -21 2 -8 7
-12 5 -12 -4z"/>
<path d="M4055 4260 c-4 -6 -1 -10 4 -10 6 0 11 -6 11 -14 0 -8 5 -18 12 -22
7 -4 8 -3 4 4 -4 7 -3 12 2 12 5 0 17 -16 28 -35 10 -19 22 -35 27 -35 4 0 11
-8 15 -18 7 -18 8 -18 27 0 20 20 20 20 -5 16 -15 -2 -24 2 -23 9 1 6 -15 27
-36 46 -22 20 -37 37 -35 40 3 2 -2 7 -10 10 -9 4 -18 2 -21 -3z"/>
<path d="M3893 3780 c0 -25 2 -35 4 -22 2 12 2 32 0 45 -2 12 -4 2 -4 -23z"/>
<path d="M6259 3788 c-26 -21 -49 -61 -49 -85 0 -44 53 -20 70 32 14 43 2 72
-21 53z"/>
<path d="M3902 3660 c0 -14 2 -19 5 -12 2 6 2 18 0 25 -3 6 -5 1 -5 -13z"/>
<path d="M3897 3441 c-9 -26 -28 -64 -42 -85 -14 -21 -20 -34 -13 -30 7 5 9 2
6 -7 -4 -10 1 -15 12 -15 11 0 16 6 13 14 -3 7 0 12 7 10 19 -5 50 63 50 109
0 58 -13 60 -33 4z m-10 -94 c0 -7 -10 -14 -21 -14 -21 -2 -21 -2 -2 13 24 17
23 17 23 1z"/>
<path d="M5562 3465 c0 -16 2 -22 5 -12 2 9 2 23 0 30 -3 6 -5 -1 -5 -18z"/>
<path d="M6541 3463 c4 -22 -3 -33 -20 -33 -11 0 -21 4 -23 10 -1 5 -13 7 -25
4 -41 -11 -24 -63 27 -84 28 -11 34 -11 58 7 33 25 41 71 16 90 -20 14 -35 17
-33 6z"/>
<path d="M5362 3298 c-19 -19 -14 -46 8 -53 27 -8 52 12 48 39 -3 24 -37 33
-56 14z"/>
<path d="M4852 3020 c-1 -40 13 -54 24 -25 8 19 -3 65 -15 65 -5 0 -9 -18 -9
-40z"/>
</g>
</svg>
